<svg width="669" height="118" viewBox="0 0 669 118" fill="none" xmlns="http://www.w3.org/2000/svg">
<path d="M324.424 82.76V99H314.68C307.736 99 302.323 97.32 298.44 93.96C294.557 90.5253 292.616 84.9626 292.616 77.272V52.408H285V36.504H292.616V21.272H311.768V36.504H324.312V52.408H311.768V77.496C311.768 79.3626 312.216 80.7066 313.112 81.528C314.008 82.3493 315.501 82.76 317.592 82.76H324.424Z" fill="white"/>
<path d="M261.152 46.92C263.392 43.4854 266.192 40.7974 269.552 38.856C272.912 36.84 276.645 35.832 280.752 35.832V56.104H275.488C270.709 56.104 267.125 57.1494 264.736 59.24C262.347 61.256 261.152 64.84 261.152 69.992V99H242V36.504H261.152V46.92Z" fill="white"/>
<path d="M138.141 35.832C145.907 35.832 152.067 38.184 156.621 42.888C161.251 47.592 163.565 54.1254 163.565 62.488V99H144.525V65.064C144.525 61.032 143.443 57.9334 141.277 55.768C139.187 53.528 136.275 52.408 132.541 52.408C128.808 52.408 125.859 53.528 123.693 55.768C121.603 57.9334 120.557 61.032 120.557 65.064V99H101.517V65.064C101.517 61.032 100.435 57.9334 98.2692 55.768C96.1786 53.528 93.2666 52.408 89.5332 52.408C85.7999 52.408 82.8506 53.528 80.6852 55.768C78.5946 57.9334 77.5492 61.032 77.5492 65.064V99H58.3972V36.504H77.5492V44.344C79.4906 41.7307 82.0292 39.6774 85.1652 38.184C88.3012 36.616 91.8479 35.832 95.8052 35.832C100.509 35.832 104.691 36.84 108.349 38.856C112.083 40.872 114.995 43.7467 117.085 47.48C119.251 44.0454 122.2 41.2454 125.933 39.08C129.667 36.9147 133.736 35.832 138.141 35.832Z" fill="white"/>
<path d="M28.784 99.896C23.3333 99.896 18.48 98.9627 14.224 97.096C9.968 95.2294 6.608 92.6907 4.144 89.48C1.68 86.1947 0.298667 82.536 0 78.504H18.928C19.152 80.6694 20.16 82.424 21.952 83.768C23.744 85.112 25.9467 85.784 28.56 85.784C30.9493 85.784 32.7787 85.336 34.048 84.44C35.392 83.4694 36.064 82.2374 36.064 80.744C36.064 78.952 35.1307 77.6454 33.264 76.824C31.3973 75.928 28.3733 74.9574 24.192 73.912C19.712 72.8667 15.9787 71.784 12.992 70.664C10.0053 69.4694 7.42933 67.64 5.264 65.176C3.09867 62.6374 2.016 59.24 2.016 54.984C2.016 51.4 2.98667 48.152 4.928 45.24C6.944 42.2534 9.856 39.9014 13.664 38.184C17.5467 36.4667 22.1387 35.608 27.44 35.608C35.28 35.608 41.44 37.5494 45.92 41.432C50.4747 45.3147 53.088 50.4667 53.76 56.888H36.064C35.7653 54.7227 34.7947 53.0054 33.152 51.736C31.584 50.4667 29.4933 49.832 26.88 49.832C24.64 49.832 22.9227 50.28 21.728 51.176C20.5333 51.9974 19.936 53.1547 19.936 54.648C19.936 56.44 20.8693 57.784 22.736 58.68C24.6773 59.576 27.664 60.472 31.696 61.368C36.3253 62.5627 40.096 63.7574 43.008 64.952C45.92 66.072 48.4587 67.9387 50.624 70.552C52.864 73.0907 54.0213 76.5254 54.096 80.856C54.096 84.5147 53.0507 87.8 50.96 90.712C48.944 93.5494 45.9947 95.7894 42.112 97.432C38.304 99.0747 33.8613 99.896 28.784 99.896Z" fill="white"/>
<path d="M195.552 35.6084C199.957 35.6084 203.803 36.5039 207.088 38.2959C210.448 40.0879 213.024 42.4396 214.816 45.3516V36.5039H233.968V99H214.816V90.1523C212.95 93.0643 210.336 95.416 206.976 97.208C203.69 98.9998 199.845 99.8964 195.44 99.8965C190.363 99.8965 185.733 98.5889 181.552 95.9756C177.371 93.2876 174.048 89.5172 171.584 84.6641C169.195 79.7361 168 74.061 168 67.6396C168 61.2186 169.195 55.5817 171.584 50.7285C174.048 45.8753 177.371 42.1416 181.552 39.5283C185.733 36.915 190.4 35.6084 195.552 35.6084ZM194.615 52.7988C192.588 58.2733 188.273 62.5879 182.799 64.6152L175 67.5L182.799 70.3848C188.273 72.4122 192.588 76.7267 194.615 82.2012L197.5 90L200.385 82.2012C202.412 76.7267 206.727 72.4121 212.201 70.3848L220 67.5L212.201 64.6152C206.727 62.5878 202.412 58.2733 200.385 52.7988L197.5 45L194.615 52.7988Z" fill="white"/>
<path d="M606.5 0C641.018 0 669 27.9822 669 62.5V98C669 109.046 660.046 118 649 118H360C348.954 118 340 109.046 340 98V20C340 8.95431 348.954 1.30865e-07 360 0H606.5ZM408.724 36.9443C403.422 36.9444 398.606 38.251 394.275 40.8643C390.02 43.4776 386.623 47.2113 384.084 52.0645C381.62 56.9177 380.388 62.4801 380.388 68.752C380.388 75.0986 381.62 80.7361 384.084 85.6641C386.623 90.5171 390.02 94.2876 394.275 96.9756C398.606 99.6636 403.386 101.008 408.612 101.008C413.241 101.008 417.31 100.074 420.819 98.208C424.403 96.2667 427.204 93.8397 429.22 90.9277V100H445.012V37.9521H429.22V46.7998C427.129 43.9625 424.329 41.6108 420.819 39.7441C417.385 37.8776 413.353 36.9443 408.724 36.9443ZM453.847 100H469.526V91.1523C471.617 94.0642 474.38 96.4537 477.814 98.3203C481.324 100.112 485.393 101.008 490.022 101.008C495.324 101.008 500.102 99.6635 504.358 96.9756C508.689 94.2876 512.086 90.5172 514.55 85.6641C517.088 80.7361 518.358 75.0986 518.358 68.752C518.358 62.4054 517.088 56.8431 514.55 52.0645C512.086 47.2112 508.689 43.4776 504.358 40.8643C500.102 38.251 495.324 36.9444 490.022 36.9443C485.468 36.9443 481.398 37.8775 477.814 39.7441C474.305 41.6108 471.542 44.0377 469.526 47.0244V17.1201H453.847V100ZM553.376 36.9443C547.254 36.9444 541.841 38.251 537.137 40.8643C532.433 43.4776 528.773 47.2111 526.16 52.0645C523.547 56.9176 522.24 62.5546 522.24 68.9756C522.24 75.3223 523.547 80.923 526.16 85.7764C528.848 90.6295 532.544 94.3999 537.248 97.0879C542.027 99.7012 547.403 101.008 553.376 101.008C560.768 101.008 567.003 99.1038 572.08 95.2959C577.157 91.4132 580.593 86.4851 582.385 80.5117H565.473C563.009 85.5144 558.864 88.0156 553.04 88.0156C549.008 88.0156 545.611 86.7465 542.849 84.208C540.086 81.6693 538.518 78.1597 538.145 73.6797H583.504C583.803 71.8877 583.952 69.8718 583.952 67.6318C583.952 61.5839 582.645 56.2455 580.032 51.6162C577.494 46.9122 573.872 43.2906 569.168 40.752C564.539 38.2134 559.275 36.9443 553.376 36.9443ZM358.729 17.1201V100H374.408V17.1201H358.729ZM590.917 100H606.598V17.1201H590.917V100ZM412.756 50.7197C415.668 50.7197 418.393 51.4667 420.932 52.96C423.47 54.3786 425.486 56.4698 426.979 59.2324C428.473 61.9203 429.22 65.1678 429.22 68.9756C429.22 72.7836 428.473 76.0694 426.979 78.832C425.486 81.5199 423.47 83.6102 420.932 85.1035C418.393 86.5222 415.668 87.2324 412.756 87.2324C409.919 87.2324 407.23 86.4855 404.691 84.9922C402.228 83.4989 400.211 81.3709 398.644 78.6084C397.15 75.7711 396.404 72.4853 396.404 68.752C396.404 65.0187 397.15 61.8081 398.644 59.1201C400.212 56.3575 402.227 54.2663 404.691 52.8477C407.155 51.429 409.844 50.7197 412.756 50.7197ZM485.878 50.7197C488.79 50.7197 491.478 51.429 493.942 52.8477C496.481 54.2663 498.497 56.3575 499.99 59.1201C501.558 61.8081 502.342 65.0187 502.342 68.752C502.342 72.56 501.558 75.8457 499.99 78.6084C498.497 81.3709 496.481 83.4989 493.942 84.9922C491.478 86.4855 488.79 87.2324 485.878 87.2324C483.041 87.2324 480.353 86.5221 477.814 85.1035C475.35 83.6102 473.335 81.4824 471.767 78.7197C470.273 75.9571 469.526 72.7089 469.526 68.9756C469.526 65.2425 470.273 61.995 471.767 59.2324C473.335 56.4698 475.35 54.3786 477.814 52.96C480.353 51.4668 483.041 50.7198 485.878 50.7197ZM552.929 49.8242C557.035 49.8243 560.507 51.0556 563.345 53.5195C566.182 55.9089 567.637 59.1203 567.712 63.1523H538.257C538.854 58.9711 540.459 55.7229 543.072 53.4082C545.76 51.0189 549.046 49.8242 552.929 49.8242Z" fill="#D9D9D9"/>
</svg>
